# xmcd
#
# Track frame offsets:
#	150
#	13832
#	25430
#	36231
#	45497
#	55722
#	65633
#	75811
#	85239
#	95834
#	104593
#	115499
#	125297
#	135524
#	145833
#	156537
#	168430
#	181073
#	190620
#	200294
#	212680
#	225097
#	236985
#	248164
#	260085
#	272705
#	285185
#	294607
#	305102
#	316663
#
# Disc length: 4375 seconds
#
# Revision: 1
# Processed by: cddbd v1.5.2PL0 Copyright (c) Steve Scherf et al.
# Submitted via: audiograbber 1.83.01
#
DISCID=aa11151e
DTITLE=Skeeter Davis - Skeeter Davis: Not That Easy To Forget: The Early Years
DYEAR=2011
DGENRE=Country
TTITLE0=I Forgot More Than You'll Ever Know (The Davis Sisters)
TTITLE1=Rock-A-Bye Boogie (The Davis Sisters)
TTITLE2=He Left His Heart With Me
TTITLE3=Don't Let Your Lips Say Yes
TTITLE4=Lost To A Geisha Girl
TTITLE5=I'm Going Steady With A Heartache
TTITLE6=Walk Softly Darling
TTITLE7=I Need You All The Time
TTITLE8=Wave Bye Bye
TTITLE9=I Ain't A-Talking
TTITLE10=Slave
TTITLE11=The Devils Doll
TTITLE12=Set Him Free
TTITLE13=Homebreaker
TTITLE14=Give Me Death
TTITLE15=Wishful Thinking
TTITLE16=Just When I Needed You
TTITLE17=Am I That Easy To Forget?
TTITLE18=Have You Seen This Man?
TTITLE19=Your Cheatin' Heart
TTITLE20=The One You Slip Around With
TTITLE21=Chained To A Memory
TTITLE22=Standing In The Shadows
TTITLE23=Under Your Spell Again
TTITLE24=Let Those Brown Eyes Smile At Me
TTITLE25=(I Can't Help You) I'm Falling Too
TTITLE26=No, Never
TTITLE27=Someone I'd Like To Forget
TTITLE28=My Last Date (With You)
TTITLE29=I Forgot More Than You'll Ever Know (Solo version)
EXTD=
EXTT0=
EXTT1=
EXTT2=
EXTT3=
EXTT4=
EXTT5=
EXTT6=
EXTT7=
EXTT8=
EXTT9=
EXTT10=
EXTT11=
EXTT12=
EXTT13=
EXTT14=
EXTT15=
EXTT16=
EXTT17=
EXTT18=
EXTT19=
EXTT20=
EXTT21=
EXTT22=
EXTT23=
EXTT24=
EXTT25=
EXTT26=
EXTT27=
EXTT28=
EXTT29=
PLAYORDER=
